# xmcd
#
# Track frame offsets:
#	150
#	20540
#	29785
#	37409
#	43475
#	56924
#	65461
#
# Disc length: 1023 seconds
#
# Revision: 0
# Processed by: cddbd v1.5.2PL0 Copyright (c) Steve Scherf et al.
# Submitted via: EasyCDDAExtractor 11.1.0.1
#
DISCID=7003fd07
DTITLE=盧冠廷 - 盧冠廷 08 Suddenly A Magic Moment
DYEAR=2008
DGENRE=Pop
TTITLE0=最愛是誰 (08' Version)
TTITLE1=長伴千世紀 Unplug
TTITLE2=逝去的心 Unplug
TTITLE3=愛是這樣甜 Unplug
TTITLE4=但願人長久 Unplug
TTITLE5=隌著你走 Unplug
TTITLE6=隌著你走 (08' Version)
EXTD=
EXTT0=
EXTT1=
EXTT2=
EXTT3=
EXTT4=
EXTT5=
EXTT6=
PLAYORDER=
